<?xml version="1.0" encoding="UTF-8" standalone="no"?><!DOCTYPE svg PUBLIC "-//W3C//DTD SVG 1.1//EN" "http://www.w3.org/Graphics/SVG/1.1/DTD/svg11.dtd"><svg width="100%" height="100%" viewBox="0 0 750 396" version="1.1" xmlns="http://www.w3.org/2000/svg" xmlns:xlink="http://www.w3.org/1999/xlink" xml:space="preserve" xmlns:serif="http://www.serif.com/" style="fill-rule:evenodd;clip-rule:evenodd;stroke-linejoin:round;stroke-miterlimit:2;"><g><path d="M49.784,205.967l8.408,-0c20.239,-0 33.941,-11.217 33.941,-29.895c-0,-18.687 -14.012,-30.205 -33.941,-30.205l-8.408,-0l0,60.1Zm0,31.134l0,86.256l-32.076,-0l0,-208.63l41.416,-0c19.307,-0 35.187,5.607 47.334,16.815c12.144,10.893 18.373,25.843 18.373,44.53c0,18.678 -6.229,33.625 -18.373,44.526c-12.147,10.902 -27.714,16.503 -47.334,16.503l-9.34,0Z" style="fill:#fff;fill-rule:nonzero;"/><path d="M117.987,323.354l36.435,0l-61.658,-94.666l-35.612,-0c0.62,1.766 1.465,3.615 2.604,5.61l58.231,89.056Z" style="fill:#fff;fill-rule:nonzero;"/><path d="M343.163,294.705c21.487,-0 38.302,-16.503 38.302,-39.236c0,-22.417 -16.195,-39.235 -38.302,-39.235c-21.485,-0 -38.3,16.818 -38.3,39.235c-0,22.733 16.815,39.236 38.3,39.236m38.302,27.097l0,-10.586c-0.935,0.93 -2.493,1.859 -4.671,3.423c-3.736,2.491 -18.997,8.715 -33.631,8.715c-19.307,0 -35.499,-6.54 -48.576,-19.616c-13.079,-13.387 -19.619,-29.275 -19.619,-48.269c-0,-18.678 6.54,-34.566 19.619,-47.95c13.389,-13.395 29.582,-19.935 48.576,-19.935c18.373,0 34.563,6.233 47.956,18.371c13.389,12.147 20.238,28.965 20.238,50.453l0,65.394l-29.892,-0Z" style="fill:#fff;fill-rule:nonzero;"/><path d="M468.62,323.354l-0,-132.653l29.892,23.634l-0,109.019l-29.892,0Zm1.868,-186.529c7.162,-7.162 18.994,-7.162 26.156,0c7.162,7.162 7.162,18.994 -0,26.156c-7.162,7.162 -18.994,7.162 -26.156,0c-7.162,-7.162 -7.162,-18.994 -0,-26.156" style="fill:#fff;fill-rule:nonzero;"/><path d="M422.031,323.354l-0,-208.639l29.894,23.634l0,185.005l-29.894,0Z" style="fill:#fff;fill-rule:nonzero;"/><path d="M599.27,323.354l-67.262,0c-14.635,0 -23.043,-7.478 -23.043,-18.686c0,-5.295 2.801,-12.141 8.408,-19.926l47.02,-65.392l-52.001,0l-0,-28.649l69.127,-0c14.325,-0 21.487,5.917 21.487,17.748c0,5.601 -1.868,10.901 -5.917,16.193l-50.444,70.063l52.625,-0l-0,28.649Z" style="fill:#fff;fill-rule:nonzero;"/><path d="M167.146,246.219c4.579,-15.294 17.593,-25.64 36.277,-25.756c18.371,-0.112 33.392,11.936 35.964,25.314l-72.241,0.442Zm68.153,37.257l-0.04,-0.002l-2.778,4.074c-4.015,5.317 -15.181,12.234 -28.573,12.316c-16.503,0.098 -31.825,-10.392 -36.908,-26.864l102.133,-0.625c0.569,-12.775 4.652,-39.576 -19.377,-62.475c-12.755,-12.155 -28.134,-17.889 -46.508,-17.779c-18.996,0.118 -34.834,6.754 -48.141,20.227c-13.308,13.469 -19.749,29.397 -19.636,48.075c0.118,18.993 6.753,34.839 19.915,48.144c13.468,12.998 29.387,19.442 48.384,19.323c18.37,-0.112 34.828,-7.999 43.501,-15.522c4.333,-4.074 8.357,-8.458 11.749,-13.468c2.344,-3.406 3.9,-5.94 5.03,-7.968l-28.751,-7.456Z" style="fill:#fff;fill-rule:nonzero;"/><path d="M629.695,246.219c4.578,-15.294 17.593,-25.64 36.276,-25.756c18.371,-0.112 33.392,11.936 35.964,25.314l-72.24,0.442Zm68.152,37.257l-0.039,-0.002l-2.779,4.074c-4.015,5.317 -15.181,12.234 -28.573,12.316c-16.503,0.098 -31.825,-10.392 -36.908,-26.864l102.133,-0.625c0.569,-12.775 4.652,-39.576 -19.377,-62.475c-12.755,-12.155 -28.137,-17.889 -46.507,-17.779c-18.997,0.118 -34.835,6.754 -48.142,20.227c-13.308,13.469 -19.749,29.397 -19.636,48.075c0.118,18.993 6.754,34.839 19.915,48.144c13.468,12.998 29.388,19.442 48.381,19.323c18.374,-0.112 34.831,-7.999 43.504,-15.522c4.334,-4.074 8.357,-8.458 11.75,-13.468c2.344,-3.406 3.899,-5.94 5.029,-7.968l-28.751,-7.456Z" style="fill:#fff;fill-rule:nonzero;"/><path d="M353.162,364.598l0,8.588c0,11.133 9.71,12.218 17.681,12.218l3.409,-0c7.974,-0 17.684,-1.102 17.684,-12.218l-0,-8.588c-0,-11.115 -9.693,-12.217 -17.684,-12.217l-3.409,0c-7.971,0 -17.681,1.085 -17.681,12.217Zm-2.806,0.099l0,8.391c0,7.92 5.447,14.406 16.878,14.406l10.63,0c11.432,0 16.878,-6.486 16.878,-14.406l-0,-8.391c-0,-7.92 -5.446,-14.406 -16.878,-14.406l-10.63,-0c-11.431,-0 -16.878,6.486 -16.878,14.406Z" style="fill:#ececec;"/><path d="M409.751,387.477l0,-17.531l30.132,0l0,-2.105l-30.132,0l0,-15.46l33.392,0l1.22,-2.088l-37.418,0l0,37.201l2.806,-0.017Z" style="fill:#ececec;"/><path d="M616.333,372.569l0,-19.988l20.792,0c7.235,0 12.366,2.257 12.366,10.045c0,8.12 -5.632,9.943 -12.366,9.943l-20.792,0Zm23.046,2.291c0.803,0 1.572,-0.051 2.307,-0.135l7.371,12.769l3.224,0l-7.704,-13.352c5.047,-1.539 7.704,-5.399 7.704,-9.879c-0,-1.369 0.067,-2.857 -0.017,-4.212c-0.367,-5.447 -4.895,-9.76 -12.885,-9.76l-25.852,-0l0,37.203l2.806,0l0,-12.634l23.046,0Z" style="fill:#ececec;"/><path d="M489.143,352.381l1.204,-2.088l-37.988,0l1.204,2.088l16.395,0l0,35.113l2.79,0l-0,-35.113l16.395,0Z" style="fill:#ececec;"/><path d="M338.015,350.293l-25.953,0c-6.436,0 -11.197,3.108 -11.282,9.828c0.085,6.717 4.846,9.825 11.282,9.825l14.373,0c3.189,0 11.848,-0.566 11.848,7.723c-0,8.273 -8.659,7.687 -11.848,7.687l-23.818,-0l-1.237,2.138l25.055,-0.033l3.375,0.033c6.416,0 11.18,-3.108 11.279,-9.825c-0.099,-6.72 -4.863,-9.828 -11.279,-9.828l-14.39,0c0,-0.335 -11.834,1.807 -11.834,-7.72c0,-8.289 8.659,-7.74 11.834,-7.74l21.375,0l1.22,-2.088Z" style="fill:#ececec;"/><path d="M567.011,377.351l13.437,-24.818l13.437,24.818l-26.874,-0Zm13.437,-27.058c-1.304,0 -2.04,0.702 -2.691,1.84l-19.137,35.361l2.911,0l4.345,-8.055l29.128,-0l4.362,8.055l2.891,0l-19.135,-35.361c-0.651,-1.138 -1.372,-1.84 -2.674,-1.84" style="fill:#ececec;fill-rule:nonzero;"/><path d="M514.964,387.477c-1.688,0 -2.271,-1.101 -2.739,-2.44l-12.662,-34.744l2.606,0l12.913,34.713l9.772,-32.676c0.468,-1.403 0.817,-2.037 1.938,-2.037c1.102,0 1.468,0.634 1.919,2.037l9.774,32.676l12.911,-34.713l2.606,0l-12.645,34.744c-0.468,1.339 -1.068,2.44 -2.756,2.44c-1.722,0 -2.172,-1.318 -2.589,-2.657l-9.22,-30.117l-9.239,30.117c-0.417,1.339 -0.851,2.657 -2.589,2.657" style="fill:#ececec;fill-rule:nonzero;"/><path d="M703.575,385.728l-33.986,-0l0,-15.601l30.411,-0l-0,-2.125l-30.411,0l0,-15.601l33.699,-0l1.214,-2.108l-37.745,0l0,37.542l36.818,0l0,-2.107Z" style="fill:#ececec;"/><path d="M188.464,63.945l109.051,-55.947l36.423,16.841l-0.49,27.514l-0.885,50.534l-33.29,-15.39l0.321,-17.776l0.555,-30.616l-78.409,40.224l-0.476,27.443l-0.321,17.777l-0.555,30.616l-30.642,15.722l-3.147,-1.456l0.49,-27.517l0.885,-50.531l0.49,-27.438Z" style="fill:#25b9f7;fill-rule:nonzero;"/><path d="M189.808,170.941l52.295,-0l6.269,-7.467l23.618,-28.103l29.883,35.57l53.504,-0l-56.186,-66.873l-53.194,-0l-0.155,0.183l-23.611,28.103l-32.423,38.587Z" style="fill:#30e071;fill-rule:nonzero;"/></g></svg>